<svg xmlns="http://www.w3.org/2000/svg" viewBox="0 0 96 96" role="img" aria-labelledby="title">
  <title>Buy me a coffee</title>
  <defs>
    <linearGradient id="steam" x1="0" x2="0" y1="0" y2="1">
      <stop offset="0" stop-color="#fff1c4" stop-opacity="0.9"/>
      <stop offset="1" stop-color="#fff1c4" stop-opacity="0"/>
    </linearGradient>
    <linearGradient id="cup" x1="0" x2="1" y1="0" y2="1">
      <stop offset="0" stop-color="#ffd571"/>
      <stop offset="1" stop-color="#f0b34a"/>
    </linearGradient>
  </defs>
  <rect x="8" y="8" width="80" height="80" rx="22" fill="#2a2014"/>
  <rect x="16" y="16" width="64" height="64" rx="18" fill="#4d3a1f"/>
  <path d="M36 20c-5 6-5 10 0 16" fill="none" stroke="url(#steam)" stroke-linecap="round" stroke-width="4"/>
  <path d="M50 18c-5 7-5 11 0 17" fill="none" stroke="url(#steam)" stroke-linecap="round" stroke-width="4"/>
  <path d="M64 20c-5 6-5 10 0 16" fill="none" stroke="url(#steam)" stroke-linecap="round" stroke-width="4"/>
  <path d="M28 40h28c8 0 14 6 14 14s-6 14-14 14H34c-7 0-12-5-12-12V40Z" fill="url(#cup)"/>
  <path d="M56 46h9c5 0 9 4 9 9s-4 9-9 9h-5" fill="none" stroke="#ffd98d" stroke-width="6" stroke-linecap="round"/>
  <path d="M30 70h40" fill="none" stroke="#e8b24d" stroke-linecap="round" stroke-width="5"/>
  <path d="M49 49c2-4 8-3 8 2 0 5-6 8-9 11-3-3-9-6-9-11 0-5 6-6 8-2l1 2 1-2Z" fill="#7b4521"/>
</svg>
